<mxfile host="app.diagrams.net" agent="Mozilla/5.0 (X11; Linux x86_64; rv:135.0) Gecko/20100101 Firefox/135.0" version="26.0.16">
  <diagram name="Page-1" id="KWZwRVmQdsG7b6gLNy9Q">
    <mxGraphModel dx="1430" dy="763" grid="1" gridSize="10" guides="1" tooltips="1" connect="1" arrows="1" fold="1" page="1" pageScale="1" pageWidth="827" pageHeight="1169" math="0" shadow="0">
      <root>
        <mxCell id="0" />
        <mxCell id="1" parent="0" />
        <mxCell id="Uz9Vqa0y-kKcoAfQ9YQz-1" value="Load L0 File (*.l0)" style="rounded=0;whiteSpace=wrap;html=1;" vertex="1" parent="1">
          <mxGeometry x="40" y="30" width="120" height="60" as="geometry" />
        </mxCell>
        <mxCell id="Uz9Vqa0y-kKcoAfQ9YQz-10" style="edgeStyle=orthogonalEdgeStyle;rounded=1;orthogonalLoop=1;jettySize=auto;html=1;exitX=0.5;exitY=0;exitDx=0;exitDy=0;entryX=0.5;entryY=1;entryDx=0;entryDy=0;curved=0;" edge="1" parent="1" source="Uz9Vqa0y-kKcoAfQ9YQz-2" target="Uz9Vqa0y-kKcoAfQ9YQz-1">
          <mxGeometry relative="1" as="geometry" />
        </mxCell>
        <mxCell id="Uz9Vqa0y-kKcoAfQ9YQz-2" value="Tokenize and Parse" style="rounded=0;whiteSpace=wrap;html=1;" vertex="1" parent="1">
          <mxGeometry x="40" y="130" width="120" height="60" as="geometry" />
        </mxCell>
        <mxCell id="Uz9Vqa0y-kKcoAfQ9YQz-7" style="edgeStyle=orthogonalEdgeStyle;rounded=1;orthogonalLoop=1;jettySize=auto;html=1;exitX=0.5;exitY=0;exitDx=0;exitDy=0;entryX=0.5;entryY=1;entryDx=0;entryDy=0;curved=0;" edge="1" parent="1" source="Uz9Vqa0y-kKcoAfQ9YQz-3" target="Uz9Vqa0y-kKcoAfQ9YQz-2">
          <mxGeometry relative="1" as="geometry" />
        </mxCell>
        <mxCell id="Uz9Vqa0y-kKcoAfQ9YQz-3" value="Declare Environment Types" style="rounded=0;whiteSpace=wrap;html=1;" vertex="1" parent="1">
          <mxGeometry x="40" y="270" width="120" height="60" as="geometry" />
        </mxCell>
        <mxCell id="Uz9Vqa0y-kKcoAfQ9YQz-8" style="edgeStyle=orthogonalEdgeStyle;rounded=1;orthogonalLoop=1;jettySize=auto;html=1;exitX=0.5;exitY=0;exitDx=0;exitDy=0;curved=0;entryX=0.5;entryY=1;entryDx=0;entryDy=0;" edge="1" parent="1" source="Uz9Vqa0y-kKcoAfQ9YQz-4" target="Uz9Vqa0y-kKcoAfQ9YQz-2">
          <mxGeometry relative="1" as="geometry">
            <mxPoint x="220" y="200" as="targetPoint" />
          </mxGeometry>
        </mxCell>
        <mxCell id="Uz9Vqa0y-kKcoAfQ9YQz-4" value="Declare External Types" style="rounded=0;whiteSpace=wrap;html=1;" vertex="1" parent="1">
          <mxGeometry x="240" y="270" width="120" height="60" as="geometry" />
        </mxCell>
        <mxCell id="Uz9Vqa0y-kKcoAfQ9YQz-9" style="edgeStyle=orthogonalEdgeStyle;rounded=1;orthogonalLoop=1;jettySize=auto;html=1;exitX=0.5;exitY=0;exitDx=0;exitDy=0;curved=0;entryX=0.5;entryY=1;entryDx=0;entryDy=0;" edge="1" parent="1" source="Uz9Vqa0y-kKcoAfQ9YQz-5" target="Uz9Vqa0y-kKcoAfQ9YQz-2">
          <mxGeometry relative="1" as="geometry">
            <mxPoint x="290" y="180" as="targetPoint" />
          </mxGeometry>
        </mxCell>
        <mxCell id="Uz9Vqa0y-kKcoAfQ9YQz-5" value="Declare Global (Internal) Types" style="rounded=0;whiteSpace=wrap;html=1;" vertex="1" parent="1">
          <mxGeometry x="440" y="270" width="120" height="60" as="geometry" />
        </mxCell>
        <mxCell id="Uz9Vqa0y-kKcoAfQ9YQz-12" style="edgeStyle=orthogonalEdgeStyle;rounded=1;orthogonalLoop=1;jettySize=auto;html=1;exitX=0.5;exitY=0;exitDx=0;exitDy=0;entryX=0.5;entryY=1;entryDx=0;entryDy=0;curved=0;" edge="1" parent="1" source="Uz9Vqa0y-kKcoAfQ9YQz-11" target="Uz9Vqa0y-kKcoAfQ9YQz-3">
          <mxGeometry relative="1" as="geometry" />
        </mxCell>
        <mxCell id="Uz9Vqa0y-kKcoAfQ9YQz-13" style="edgeStyle=orthogonalEdgeStyle;rounded=1;orthogonalLoop=1;jettySize=auto;html=1;exitX=0.5;exitY=0;exitDx=0;exitDy=0;entryX=0.5;entryY=1;entryDx=0;entryDy=0;curved=0;" edge="1" parent="1" source="Uz9Vqa0y-kKcoAfQ9YQz-11" target="Uz9Vqa0y-kKcoAfQ9YQz-4">
          <mxGeometry relative="1" as="geometry" />
        </mxCell>
        <mxCell id="Uz9Vqa0y-kKcoAfQ9YQz-14" style="edgeStyle=orthogonalEdgeStyle;rounded=1;orthogonalLoop=1;jettySize=auto;html=1;exitX=0.5;exitY=0;exitDx=0;exitDy=0;entryX=0.5;entryY=1;entryDx=0;entryDy=0;curved=0;" edge="1" parent="1" source="Uz9Vqa0y-kKcoAfQ9YQz-11" target="Uz9Vqa0y-kKcoAfQ9YQz-5">
          <mxGeometry relative="1" as="geometry" />
        </mxCell>
        <mxCell id="Uz9Vqa0y-kKcoAfQ9YQz-11" value="Fill Types" style="rounded=0;whiteSpace=wrap;html=1;" vertex="1" parent="1">
          <mxGeometry x="40" y="390" width="120" height="60" as="geometry" />
        </mxCell>
        <mxCell id="Uz9Vqa0y-kKcoAfQ9YQz-18" style="edgeStyle=orthogonalEdgeStyle;rounded=1;orthogonalLoop=1;jettySize=auto;html=1;exitX=0.5;exitY=0;exitDx=0;exitDy=0;entryX=0.5;entryY=1;entryDx=0;entryDy=0;curved=0;" edge="1" parent="1" source="Uz9Vqa0y-kKcoAfQ9YQz-15" target="Uz9Vqa0y-kKcoAfQ9YQz-11">
          <mxGeometry relative="1" as="geometry" />
        </mxCell>
        <mxCell id="Uz9Vqa0y-kKcoAfQ9YQz-15" value="Declare External Variables (incl. Functions)" style="rounded=0;whiteSpace=wrap;html=1;" vertex="1" parent="1">
          <mxGeometry x="40" y="510" width="120" height="60" as="geometry" />
        </mxCell>
        <mxCell id="Uz9Vqa0y-kKcoAfQ9YQz-19" style="edgeStyle=orthogonalEdgeStyle;rounded=1;orthogonalLoop=1;jettySize=auto;html=1;exitX=0.5;exitY=0;exitDx=0;exitDy=0;entryX=0.5;entryY=1;entryDx=0;entryDy=0;curved=0;" edge="1" parent="1" source="Uz9Vqa0y-kKcoAfQ9YQz-16" target="Uz9Vqa0y-kKcoAfQ9YQz-11">
          <mxGeometry relative="1" as="geometry" />
        </mxCell>
        <mxCell id="Uz9Vqa0y-kKcoAfQ9YQz-16" value="Declare Global (Internal) Variables (incl. Functions)" style="rounded=0;whiteSpace=wrap;html=1;" vertex="1" parent="1">
          <mxGeometry x="240" y="510" width="120" height="60" as="geometry" />
        </mxCell>
        <mxCell id="Uz9Vqa0y-kKcoAfQ9YQz-22" style="edgeStyle=orthogonalEdgeStyle;rounded=1;orthogonalLoop=1;jettySize=auto;html=1;exitX=0.5;exitY=0;exitDx=0;exitDy=0;entryX=0.5;entryY=1;entryDx=0;entryDy=0;curved=0;" edge="1" parent="1" source="Uz9Vqa0y-kKcoAfQ9YQz-21" target="Uz9Vqa0y-kKcoAfQ9YQz-15">
          <mxGeometry relative="1" as="geometry" />
        </mxCell>
        <mxCell id="Uz9Vqa0y-kKcoAfQ9YQz-23" style="edgeStyle=orthogonalEdgeStyle;rounded=1;orthogonalLoop=1;jettySize=auto;html=1;exitX=0.5;exitY=0;exitDx=0;exitDy=0;entryX=0.5;entryY=1;entryDx=0;entryDy=0;curved=0;" edge="1" parent="1" source="Uz9Vqa0y-kKcoAfQ9YQz-21" target="Uz9Vqa0y-kKcoAfQ9YQz-16">
          <mxGeometry relative="1" as="geometry" />
        </mxCell>
        <mxCell id="Uz9Vqa0y-kKcoAfQ9YQz-21" value="Resolve Variables" style="rounded=0;whiteSpace=wrap;html=1;" vertex="1" parent="1">
          <mxGeometry x="40" y="630" width="120" height="60" as="geometry" />
        </mxCell>
        <mxCell id="Uz9Vqa0y-kKcoAfQ9YQz-26" style="edgeStyle=orthogonalEdgeStyle;rounded=1;orthogonalLoop=1;jettySize=auto;html=1;exitX=0.5;exitY=0;exitDx=0;exitDy=0;entryX=0.5;entryY=1;entryDx=0;entryDy=0;curved=0;" edge="1" parent="1" source="Uz9Vqa0y-kKcoAfQ9YQz-24" target="Uz9Vqa0y-kKcoAfQ9YQz-21">
          <mxGeometry relative="1" as="geometry" />
        </mxCell>
        <mxCell id="Uz9Vqa0y-kKcoAfQ9YQz-24" value="Typecheck Callables Intrinsically (excl. return values)" style="rounded=0;whiteSpace=wrap;html=1;" vertex="1" parent="1">
          <mxGeometry x="40" y="750" width="120" height="60" as="geometry" />
        </mxCell>
        <mxCell id="Uz9Vqa0y-kKcoAfQ9YQz-30" style="edgeStyle=orthogonalEdgeStyle;rounded=0;orthogonalLoop=1;jettySize=auto;html=1;exitX=0.5;exitY=0;exitDx=0;exitDy=0;entryX=0.5;entryY=1;entryDx=0;entryDy=0;" edge="1" parent="1" source="Uz9Vqa0y-kKcoAfQ9YQz-25" target="Uz9Vqa0y-kKcoAfQ9YQz-24">
          <mxGeometry relative="1" as="geometry" />
        </mxCell>
        <mxCell id="Uz9Vqa0y-kKcoAfQ9YQz-25" value="Typecheck Struct Initializers" style="rounded=0;whiteSpace=wrap;html=1;" vertex="1" parent="1">
          <mxGeometry x="40" y="870" width="120" height="60" as="geometry" />
        </mxCell>
        <mxCell id="Uz9Vqa0y-kKcoAfQ9YQz-32" style="edgeStyle=orthogonalEdgeStyle;rounded=1;orthogonalLoop=1;jettySize=auto;html=1;exitX=0.5;exitY=0;exitDx=0;exitDy=0;entryX=0.5;entryY=1;entryDx=0;entryDy=0;curved=0;" edge="1" parent="1" source="Uz9Vqa0y-kKcoAfQ9YQz-31" target="Uz9Vqa0y-kKcoAfQ9YQz-24">
          <mxGeometry relative="1" as="geometry" />
        </mxCell>
        <mxCell id="Uz9Vqa0y-kKcoAfQ9YQz-31" value="Check Callables Return Values (Types and Completeness)" style="rounded=0;whiteSpace=wrap;html=1;" vertex="1" parent="1">
          <mxGeometry x="240" y="870" width="120" height="60" as="geometry" />
        </mxCell>
        <mxCell id="Uz9Vqa0y-kKcoAfQ9YQz-34" style="edgeStyle=orthogonalEdgeStyle;rounded=1;orthogonalLoop=1;jettySize=auto;html=1;exitX=0.5;exitY=0;exitDx=0;exitDy=0;entryX=0.5;entryY=1;entryDx=0;entryDy=0;curved=0;" edge="1" parent="1" source="Uz9Vqa0y-kKcoAfQ9YQz-33" target="Uz9Vqa0y-kKcoAfQ9YQz-24">
          <mxGeometry relative="1" as="geometry" />
        </mxCell>
        <mxCell id="Uz9Vqa0y-kKcoAfQ9YQz-33" value="Check Reference Semantics" style="rounded=0;whiteSpace=wrap;html=1;" vertex="1" parent="1">
          <mxGeometry x="440" y="870" width="120" height="60" as="geometry" />
        </mxCell>
        <mxCell id="Uz9Vqa0y-kKcoAfQ9YQz-36" style="edgeStyle=orthogonalEdgeStyle;rounded=0;orthogonalLoop=1;jettySize=auto;html=1;exitX=0.5;exitY=0;exitDx=0;exitDy=0;entryX=0.5;entryY=1;entryDx=0;entryDy=0;" edge="1" parent="1" source="Uz9Vqa0y-kKcoAfQ9YQz-35" target="Uz9Vqa0y-kKcoAfQ9YQz-25">
          <mxGeometry relative="1" as="geometry" />
        </mxCell>
        <mxCell id="Uz9Vqa0y-kKcoAfQ9YQz-37" style="edgeStyle=orthogonalEdgeStyle;rounded=1;orthogonalLoop=1;jettySize=auto;html=1;exitX=0.5;exitY=0;exitDx=0;exitDy=0;entryX=0.5;entryY=1;entryDx=0;entryDy=0;curved=0;" edge="1" parent="1" source="Uz9Vqa0y-kKcoAfQ9YQz-35" target="Uz9Vqa0y-kKcoAfQ9YQz-31">
          <mxGeometry relative="1" as="geometry" />
        </mxCell>
        <mxCell id="Uz9Vqa0y-kKcoAfQ9YQz-38" style="edgeStyle=orthogonalEdgeStyle;rounded=1;orthogonalLoop=1;jettySize=auto;html=1;exitX=0.5;exitY=0;exitDx=0;exitDy=0;entryX=0.5;entryY=1;entryDx=0;entryDy=0;curved=0;" edge="1" parent="1" source="Uz9Vqa0y-kKcoAfQ9YQz-35" target="Uz9Vqa0y-kKcoAfQ9YQz-33">
          <mxGeometry relative="1" as="geometry" />
        </mxCell>
        <mxCell id="Uz9Vqa0y-kKcoAfQ9YQz-35" value="Generate IR" style="rounded=0;whiteSpace=wrap;html=1;" vertex="1" parent="1">
          <mxGeometry x="40" y="990" width="120" height="60" as="geometry" />
        </mxCell>
        <mxCell id="Uz9Vqa0y-kKcoAfQ9YQz-40" style="edgeStyle=orthogonalEdgeStyle;rounded=0;orthogonalLoop=1;jettySize=auto;html=1;exitX=0.5;exitY=0;exitDx=0;exitDy=0;entryX=0.5;entryY=1;entryDx=0;entryDy=0;" edge="1" parent="1" source="Uz9Vqa0y-kKcoAfQ9YQz-39" target="Uz9Vqa0y-kKcoAfQ9YQz-35">
          <mxGeometry relative="1" as="geometry" />
        </mxCell>
        <mxCell id="Uz9Vqa0y-kKcoAfQ9YQz-39" value="Store Textual LLVM IR as File (*.ll)" style="rounded=0;whiteSpace=wrap;html=1;" vertex="1" parent="1">
          <mxGeometry x="40" y="1109" width="120" height="60" as="geometry" />
        </mxCell>
      </root>
    </mxGraphModel>
  </diagram>
</mxfile>
